<?xml version="1.0" encoding="utf-8" standalone="yes"?> <svg width="1000" height="1000" viewBox="-1 -1 31 31" xmlns="http://www.w3.org/2000/svg" shape-rendering="crispEdges" id="qr code"><rect id="qr background" fill-opacity="1" fill="rgb(255, 255, 255)" x="-1" y="-1" width="31" height="31"></rect><path fill-opacity="1" fill="rgb(0, 0, 0)" id="qr dark pixels" fill-rule="evenodd" d="M 8 0 L 9 0 L 9 1 L 8 1 z M 10 0 L 11 0 L 11 1 L 12 1 L 12 0 L 13 0 L 13 2 L 11 2 L 11 4 L 9 4 L 9 5 L 8 5 L 8 2 L 9 2 L 9 1 L 10 1 z M 14 0 L 15 0 L 15 2 L 14 2 z M 16 0 L 21 0 L 21 2 L 20 2 L 20 1 L 17 1 L 17 3 L 16 3 z M 13 2 L 14 2 L 14 3 L 16 3 L 16 4 L 17 4 L 17 5 L 15 5 L 15 4 L 13 4 L 13 5 L 12 5 L 12 6 L 11 6 L 11 8 L 12 8 L 12 6 L 13 6 L 13 9 L 15 9 L 15 10 L 13 10 L 13 11 L 11 11 L 11 13 L 9 13 L 9 12 L 8 12 L 8 13 L 9 13 L 9 14 L 11 14 L 11 13 L 12 13 L 12 12 L 13 12 L 13 11 L 15 11 L 15 13 L 17 13 L 17 12 L 18 12 L 18 14 L 15 14 L 15 15 L 13 15 L 13 14 L 14 14 L 14 13 L 13 13 L 13 14 L 12 14 L 12 16 L 11 16 L 11 15 L 10 15 L 10 16 L 11 16 L 11 18 L 10 18 L 10 17 L 9 17 L 9 18 L 8 18 L 8 19 L 12 19 L 12 20 L 10 20 L 10 21 L 11 21 L 11 22 L 10 22 L 10 23 L 9 23 L 9 22 L 8 22 L 8 20 L 7 20 L 7 19 L 6 19 L 6 20 L 7 20 L 7 21 L 5 21 L 5 20 L 4 20 L 4 18 L 7 18 L 7 17 L 8 17 L 8 14 L 7 14 L 7 13 L 6 13 L 6 12 L 7 12 L 7 11 L 9 11 L 9 10 L 10 10 L 10 5 L 11 5 L 11 4 L 12 4 L 12 3 L 13 3 zM 11 9 L 12 9 L 12 10 L 11 10 z M 18 2 L 20 2 L 20 6 L 19 6 L 19 7 L 20 7 L 20 8 L 19 8 L 19 9 L 17 9 L 17 8 L 16 8 L 16 9 L 15 9 L 15 8 L 14 8 L 14 6 L 15 6 L 15 7 L 16 7 L 16 6 L 17 6 L 17 7 L 18 7 L 18 6 L 17 6 L 17 5 L 19 5 L 19 4 L 17 4 L 17 3 L 18 3 z M 13 5 L 14 5 L 14 6 L 13 6 z M 8 6 L 9 6 L 9 7 L 8 7 z M 20 6 L 21 6 L 21 7 L 20 7 z M 0 8 L 4 8 L 4 9 L 5 9 L 5 10 L 4 10 L 4 11 L 0 11 L 0 10 L 1 10 L 1 9 L 0 9 z M 6 8 L 7 8 L 7 9 L 6 9 z M 8 8 L 9 8 L 9 9 L 8 9 z M 21 8 L 22 8 L 22 9 L 24 9 L 24 8 L 27 8 L 27 9 L 25 9 L 25 12 L 23 12 L 23 10 L 22 10 L 22 12 L 21 12 z M 28 8 L 29 8 L 29 10 L 28 10 z M 7 9 L 8 9 L 8 10 L 7 10 z M 19 9 L 20 9 L 20 10 L 19 10 z M 5 10 L 7 10 L 7 11 L 5 11 z M 26 10 L 28 10 L 28 11 L 26 11 z M 19 11 L 20 11 L 20 12 L 21 12 L 21 13 L 20 13 L 20 15 L 18 15 L 18 14 L 19 14 z M 28 11 L 29 11 L 29 12 L 28 12 z M 0 12 L 1 12 L 1 14 L 0 14 z M 2 12 L 5 12 L 5 13 L 4 13 L 4 14 L 5 14 L 5 15 L 3 15 L 3 13 L 2 13 z M 25 12 L 27 12 L 27 13 L 29 13 L 29 15 L 28 15 L 28 18 L 27 18 L 27 21 L 29 21 L 29 22 L 28 22 L 28 23 L 27 23 L 27 22 L 26 22 L 26 24 L 25 24 L 25 20 L 26 20 L 26 18 L 25 18 L 25 17 L 24 17 L 24 16 L 22 16 L 22 15 L 23 15 L 23 14 L 22 14 L 22 13 L 24 13 L 24 14 L 25 14 L 25 16 L 26 16 L 26 17 L 27 17 L 27 15 L 26 15 L 26 13 L 25 13 z M 1 14 L 2 14 L 2 15 L 3 15 L 3 16 L 2 16 L 2 17 L 0 17 L 0 15 L 1 15 z M 6 14 L 7 14 L 7 15 L 6 15 z M 21 14 L 22 14 L 22 15 L 21 15 z M 15 15 L 17 15 L 17 16 L 16 16 L 16 19 L 13 19 L 13 18 L 15 18 z M 20 15 L 21 15 L 21 16 L 20 16 z M 3 16 L 5 16 L 5 17 L 3 17 z M 6 16 L 7 16 L 7 17 L 6 17 z M 12 16 L 14 16 L 14 17 L 12 17 z M 18 16 L 19 16 L 19 17 L 18 17 z M 21 16 L 22 16 L 22 17 L 21 17 z M 20 17 L 21 17 L 21 19 L 22 19 L 22 18 L 23 18 L 23 17 L 24 17 L 24 19 L 23 19 L 23 20 L 20 20 z M 0 18 L 1 18 L 1 19 L 0 19 z M 16 19 L 18 19 L 18 20 L 19 20 L 19 22 L 18 22 L 18 23 L 17 23 L 17 22 L 16 22 L 16 21 L 17 21 L 17 20 L 16 20 z M 1 20 L 4 20 L 4 21 L 1 21 z M 14 20 L 15 20 L 15 21 L 14 21 z M 13 21 L 14 21 L 14 24 L 15 24 L 15 25 L 17 25 L 17 24 L 18 24 L 18 25 L 20 25 L 20 27 L 19 27 L 19 26 L 18 26 L 18 27 L 17 27 L 17 28 L 16 28 L 16 26 L 15 26 L 15 28 L 14 28 L 14 26 L 13 26 L 13 25 L 12 25 L 12 26 L 10 26 L 10 25 L 9 25 L 9 24 L 11 24 L 11 23 L 13 23 z M 19 22 L 20 22 L 20 23 L 19 23 z M 16 23 L 17 23 L 17 24 L 16 24 z M 18 23 L 19 23 L 19 24 L 18 24 z M 28 23 L 29 23 L 29 27 L 28 27 z M 26 24 L 27 24 L 27 25 L 26 25 z M 8 25 L 9 25 L 9 27 L 13 27 L 13 28 L 14 28 L 14 29 L 11 29 L 11 28 L 10 28 L 10 29 L 8 29 z M 21 25 L 22 25 L 22 26 L 21 26 z M 24 25 L 26 25 L 26 26 L 24 26 z M 23 26 L 24 26 L 24 28 L 23 28 z M 26 26 L 27 26 L 27 27 L 26 27 z M 18 27 L 19 27 L 19 28 L 18 28 z M 20 27 L 21 27 L 21 29 L 19 29 L 19 28 L 20 28 z M 25 27 L 26 27 L 26 29 L 25 29 z M 27 27 L 28 27 L 28 29 L 27 29 z M 15 28 L 16 28 L 16 29 L 15 29 z"></path><path id="qr squares" d="M0,0h7h0v0v7v0h0h-7h0v0v-7v0h0zM1,1h5h0v0v5v0h0h-5h0v0v-5v0h0zM2,2h3h0v0v3v0h0h-3h0v0v-3v0h0z M22,0h7h0v0v7v0h0h-7h0v0v-7v0h0zM23,1h5h0v0v5v0h0h-5h0v0v-5v0h0zM24,2h3h0v0v3v0h0h-3h0v0v-3v0h0z M0,22h7h0v0v7v0h0h-7h0v0v-7v0h0zM1,23h5h0v0v5v0h0h-5h0v0v-5v0h0zM2,24h3h0v0v3v0h0h-3h0v0v-3v0h0zM20,20h5h0v0v5v0h0h-5h0v0v-5v0h0zM21,21h3h0v0v3v0h0h-3h0v0v-3v0h0zM22,22h1h0v0v1v0h0h-1h0v0v-1v0h0z" fill-rule="evenodd" fill-opacity="1" fill="rgb(0, 0, 0)"></path></svg>